<?xml version="1.0" encoding="utf-8"?>
<!-- Generator: Adobe Illustrator 26.0.3, SVG Export Plug-In . SVG Version: 6.00 Build 0)  -->
<svg version="1.0" id="katman_1" xmlns="http://www.w3.org/2000/svg" xmlns:xlink="http://www.w3.org/1999/xlink" x="0px" y="0px"
	 viewBox="0 0 600 450" style="enable-background:new 0 0 600 450;" xml:space="preserve">
<style type="text/css">
	.st0{fill:none;}
	.st1{fill:#96BCB5;}
</style>
<path class="st0" d="M292.9,179.6v-30.3c-13.4-15.2-27.4-21.9-39.6-24.4c-0.5,0-1-0.1-1.4-0.3c-9.8-1.8-20-1.2-29.5,1.7
	c6.6,41.3,68.8,52.8,69.4,52.9C292.2,179.3,292.6,179.4,292.9,179.6z"/>
<path class="st0" d="M305.2,133.4c11.4-10.1,25.5-16.5,40.6-18.5c2.2-8.5,1.6-17.5-1.5-25.7c-6.8,2.7-13.2,6.3-19,10.6
	C312.9,109.1,306.2,120.4,305.2,133.4z"/>
<path class="st0" d="M295.7,138.6c-0.1-3.8,0.1-7.6,0.8-11.4c-2.2-8.6-7-16.4-13.7-22.2c-8.1-6.9-17.4-12.3-27.4-15.8
	c-1.4,7.5-2.4,19.3,1.1,26.9C268.9,118.9,282.6,125.4,295.7,138.6z"/>
<path class="st0" d="M301.3,113.4c2.2-4.1,4.8-8,8-11.5c-0.9-4.9-5.9-10.1-9.1-12.8c-3.7,3.1-6.7,6.9-8.7,11.2
	C295.4,104.2,298.7,108.6,301.3,113.4z"/>
<path class="st0" d="M350.7,123.7c-0.6,0.2-1.1,0.2-1.7,0.1c-13.6,1.2-30.5,7.3-46.7,25.5v30.3c0.4-0.2,0.8-0.3,1.1-0.4
	c0.6-0.1,62.8-11.7,69.4-52.9C365.7,124.1,358.2,123.2,350.7,123.7z"/>
<path class="st0" d="M454.8,228.3c0-20.1-16.3-36.3-36.4-36.4H181.8c-20.1,0-36.3,16.3-36.4,36.4v8.1c0,20.1,16.3,36.3,36.4,36.4
	h206c2.7-1.1,13.9-6.3,14.3-19.3c0.3-3.1-0.7-6.1-2.8-8.4c-4.2-4.1-11.9-3.9-12-3.9h-67.2c-2.6,0-4.7-2.1-4.7-4.7s2.1-4.7,4.7-4.7
	h66.8c1.4,0,12-0.2,18.8,6.5c4,4.1,6.1,9.7,5.7,15.4c-0.1,7.1-2.8,13.8-7.6,19h14.5c20.1,0,36.3-16.3,36.4-36.4L454.8,228.3z
	 M260.1,241.3H198c-0.4,0-0.8,0-1.2,0c-3.9,0-7.7-1.3-10.7-3.8c-3.8-3.2-5.8-8-6-14.3c-0.2-6.3,1.5-10.9,5-14.4
	c3.5-3.3,8.1-5.1,12.9-5c2.6,0.1,4.6,2.3,4.5,4.9c0,0,0,0,0,0.1c-0.1,2.6-2.3,4.6-4.8,4.5c-2.2,0-4.3,0.9-6,2.3
	c-1.7,2.1-2.5,4.7-2.1,7.4c0.1,3.5,1,6,2.7,7.5c1.4,1.1,3.2,1.6,5,1.5c0.2,0,0.4,0,0.6,0h62.3c2.6,0,4.7,2.1,4.7,4.7
	C264.8,239.2,262.7,241.3,260.1,241.3L260.1,241.3z M299.2,241.3h-16.3c-2.6,0-4.7-2.1-4.7-4.7c0-2.6,2.1-4.7,4.7-4.7h16.3
	c2.6,0,4.7,2.1,4.7,4.7C303.9,239.2,301.8,241.3,299.2,241.3z"/>
<path class="st0" d="M388.7,282.2H181.8c-20.1,0-36.3,16.3-36.4,36.4v8.1c0,20.1,16.3,36.3,36.4,36.4h206
	c2.7-1.1,13.9-6.3,14.3-19.3c0.3-3.1-0.7-6.2-2.8-8.4c-4.2-4.1-11.8-3.9-11.9-3.8H198c-4.3,0.4-8.6-1-12-3.7c-3.8-3.2-5.8-8-6-14.3
	c-0.2-6.3,1.5-10.9,5-14.4c3.5-3.3,8.1-5.1,12.9-5c2.6,0.1,4.6,2.3,4.6,4.9c-0.1,2.6-2.3,4.6-4.9,4.6l0,0c-2.2,0-4.3,0.8-6,2.3
	c-1.7,2.1-2.5,4.7-2.1,7.4c0.1,3.4,1,6,2.6,7.4c1.5,1.1,3.3,1.7,5.1,1.6h0.5H387c1.5,0,12-0.2,18.8,6.5c4,4.1,6.1,9.7,5.7,15.4
	c-0.1,7.1-2.8,13.8-7.6,19h14.5c20.1,0,36.3-16.3,36.4-36.4v-8.1c0-20.1-16.3-36.3-36.4-36.4L388.7,282.2L388.7,282.2z"/>
<path class="st1" d="M464.2,236.4v-8.1c0-25.3-20.5-45.7-45.8-45.8h-92.1c5.3-1.9,10.5-4.2,15.6-6.7c25-12.7,39.1-30.8,40.9-52.2
	c0.2-2-0.9-3.9-2.7-4.7c-7.7-3-16-4.6-24.3-4.6c2.2-11.3,0.6-23.1-4.7-33.4c-1.1-1.9-3.4-2.8-5.4-2.2c-10.5,3.6-20.3,9-29,16.1
	c-4.3-8.9-13.5-16.3-16.5-16.3c-0.9,0-1.8,0.3-2.5,0.7C292,83,287.4,88.1,284.1,94c-9.3-6.9-19.7-12-30.8-15.3
	c-2.5-0.7-5.1,0.8-5.8,3.3c-0.2,0.9-4.9,18.3-1.3,32.5c-10.5-0.9-21,0.6-30.8,4.2c-1.8,0.8-2.9,2.7-2.8,4.7
	c1.7,21.4,15.9,39.5,40.9,52.2c5,2.6,10.2,4.8,15.6,6.7h-87.1c-25.3,0-45.8,20.6-45.8,45.9c0,0,0,0,0,0v8.1
	c0,17.5,9.9,33.4,25.6,41.1c-15.7,7.7-25.6,23.7-25.6,41.1v8.1c0,25.3,20.5,45.7,45.8,45.8h236.6c25.3,0,45.7-20.5,45.8-45.8v-8.1
	c0-17.5-9.9-33.4-25.6-41.1C454.3,269.8,464.2,253.9,464.2,236.4z M303.5,179.2c-0.4,0.1-0.8,0.2-1.1,0.4v-30.3
	c16.1-18.2,33.1-24.2,46.7-25.5c0.6,0.1,1.2,0,1.7-0.1c7.5-0.5,15.1,0.4,22.3,2.6C366.3,167.5,304.1,179.1,303.5,179.2z M344.4,89.1
	c3.1,8.2,3.6,17.2,1.5,25.7c-15.1,2-29.2,8.4-40.6,18.5c1-12.9,7.7-24.2,20.1-33.5C331.2,95.5,337.6,91.9,344.4,89.1z M300.2,89.1
	c3.3,2.8,8.2,8,9.1,12.8c-3.1,3.5-5.8,7.3-8,11.5c-2.6-4.8-5.9-9.2-9.8-13.1C293.5,96,296.5,92.2,300.2,89.1L300.2,89.1z
	 M255.5,89.3c10.1,3.5,19.4,8.8,27.4,15.8c6.7,5.8,11.5,13.5,13.7,22.2c-0.7,3.8-1,7.6-0.8,11.4c-13.2-13.3-26.9-19.7-39.1-22.4
	C253.1,108.6,254.1,96.7,255.5,89.3L255.5,89.3z M222.4,126.3c9.6-2.9,19.7-3.5,29.5-1.7c0.5,0.2,0.9,0.3,1.4,0.3
	c12.2,2.5,26.2,9.3,39.6,24.4v30.3c-0.4-0.2-0.7-0.3-1.1-0.4C291.1,179.1,229,167.6,222.4,126.3z M454.8,318.6v8.1
	c0,20.1-16.3,36.3-36.4,36.4H404c4.8-5.2,7.5-12,7.6-19c0.4-5.7-1.7-11.3-5.7-15.4c-6.9-6.7-17.4-6.6-18.8-6.5H197.8h-0.5
	c-1.8,0.1-3.7-0.4-5.1-1.6c-1.7-1.4-2.5-3.9-2.6-7.4c-0.3-2.6,0.5-5.3,2.1-7.4c1.7-1.5,3.8-2.3,6-2.3c2.6,0.1,4.8-2,4.9-4.6
	c0.1-2.6-2-4.8-4.6-4.9c-4.8-0.1-9.4,1.7-12.9,5c-3.4,3.4-5.1,8.3-5,14.4c0.2,6.1,2.2,11.1,6,14.3c3.4,2.8,7.7,4.1,12,3.7h189.3
	c0,0,7.7-0.3,11.9,3.8c2.1,2.3,3.2,5.3,2.8,8.4c-0.4,13-11.5,18.2-14.3,19.3h-206c-20.1,0-36.3-16.3-36.4-36.4v-8.1
	c0-20.1,16.3-36.3,36.4-36.4h236.6C438.5,282.2,454.8,298.5,454.8,318.6z M418.4,272.8H404c4.8-5.2,7.5-12,7.6-19
	c0.4-5.7-1.6-11.3-5.7-15.4c-6.9-6.7-17.4-6.6-18.8-6.5h-66.8c-2.6,0-4.7,2.1-4.7,4.7c0,2.6,2.1,4.7,4.7,4.7h67.2
	c0,0,7.7-0.3,12,3.9c2.1,2.3,3.1,5.3,2.8,8.4c-0.4,13-11.5,18.2-14.3,19.3H181.8c-20.1,0-36.3-16.3-36.4-36.4v-8.1
	c0-20.1,16.3-36.3,36.4-36.4h236.6c20.1,0,36.3,16.3,36.4,36.4v8.1C454.8,256.5,438.5,272.7,418.4,272.8z"/>
<path class="st1" d="M299.1,231.8h-16.3c-2.6,0-4.7,2.1-4.7,4.7s2.1,4.7,4.7,4.7h16.3c2.6,0,4.7-2.1,4.7-4.7
	S301.7,231.8,299.1,231.8z"/>
<path class="st1" d="M260.1,231.8h-62.3c-0.2,0-0.4,0-0.6,0c-1.8,0.1-3.6-0.4-5-1.5c-1.7-1.4-2.6-3.9-2.7-7.5
	c-0.3-2.6,0.5-5.2,2.1-7.2c1.7-1.4,3.8-2.3,6-2.3c2.6,0,4.7-2,4.8-4.6c0.1-2.6-1.9-4.8-4.5-4.9c0,0,0,0,0,0
	c-4.8-0.1-9.4,1.6-12.9,4.9c-3.4,3.4-5.1,8.3-5,14.4s2.2,11.1,6,14.3c3,2.5,6.8,3.9,10.7,3.8c0.4,0,0.8,0,1.2,0h62.1
	c2.6,0,4.7-2.1,4.7-4.7C264.8,234,262.7,231.9,260.1,231.8L260.1,231.8z"/>
</svg>
